<svg width="155" height="96" viewBox="0 0 155 96" fill="none" xmlns="http://www.w3.org/2000/svg">
<g clip-path="url(#clip0_945_105)">
<path d="M98.5487 10.2627H56.5488V85.7378H98.5487V10.2627Z" fill="#FF5F00"/>
<path d="M59.2161 47.9999C59.2094 40.7311 60.8566 33.5561 64.0328 27.018C67.2091 20.4799 71.8312 14.7501 77.5492 10.2624C70.4683 4.69659 61.9642 1.2353 53.0091 0.274141C44.0539 -0.687021 35.009 0.890695 26.9082 4.82703C18.8074 8.76336 11.9774 14.8995 7.19904 22.534C2.42068 30.1685 -0.113281 38.9934 -0.113281 47.9999C-0.113281 57.0065 2.42068 65.8314 7.19904 73.4659C11.9774 81.1004 18.8074 87.2365 26.9082 91.1728C35.009 95.1091 44.0539 96.6869 53.0091 95.7257C61.9642 94.7645 70.4683 91.3033 77.5492 85.7374C71.8312 81.2497 67.2092 75.5199 64.0329 68.9818C60.8567 62.4437 59.2095 55.2687 59.2161 47.9999Z" fill="#EB001B"/>
<path d="M155.209 47.9999C155.209 57.0064 152.676 65.8312 147.897 73.4657C143.119 81.1002 136.29 87.2363 128.189 91.1727C120.088 95.1091 111.044 96.6868 102.089 95.7257C93.1335 94.7645 84.6296 91.3032 77.5488 85.7374C83.2618 81.2452 87.8803 75.5145 91.056 68.9774C94.2318 62.4403 95.8819 55.2676 95.8819 47.9999C95.8819 40.7323 94.2318 33.5595 91.056 27.0224C87.8803 20.4853 83.2618 14.7546 77.5488 10.2624C84.6296 4.69657 93.1335 1.23528 102.089 0.274128C111.044 -0.687022 120.088 0.890764 128.189 4.82714C136.29 8.76351 143.119 14.8996 147.897 22.5341C152.676 30.1686 155.209 38.9935 155.209 47.9999Z" fill="#F79E1B"/>
<path d="M150.63 77.7439V76.1987H151.253V75.8839H149.666V76.1987H150.289V77.7439H150.63ZM153.71 77.7439V75.8809H153.224L152.665 77.1623L152.105 75.8809H151.618V77.7439H151.962V76.3386L152.486 77.5502H152.843L153.367 76.3355V77.7439H153.71Z" fill="#F79E1B"/>
</g>
<defs>
<clipPath id="clip0_945_105">
<rect width="155" height="96" fill="white"/>
</clipPath>
</defs>
</svg>
